<?xml version="1.0" encoding="UTF-8"?>
<svg width="849px" height="455px" viewBox="0 0 849 455" version="1.1" xmlns="http://www.w3.org/2000/svg" xmlns:xlink="http://www.w3.org/1999/xlink">
    <!-- Generator: Sketch 51 (57462) - http://www.bohemiancoding.com/sketch -->
    <title>cover</title>
    <desc>Created with Sketch.</desc>
    <defs>
        <polygon id="path-1" points="0 455 848.94 455 848.94 0.068 0 0.068"></polygon>
    </defs>
    <g id="Page-1" stroke="none" stroke-width="1" fill="none" fill-rule="evenodd">
        <g id="Intro_v3_LogOut_English" transform="translate(-216.000000, -358.000000)">
            <g id="cover" transform="translate(216.000000, 357.000000)">
                <polygon id="Fill-1" fill="#FFFFFF" points="190.7002 71.0305 190.7002 377.1595 651.7122 377.1595 651.7122 81.1605"></polygon>
                <polygon id="Fill-2" fill="#515151" points="190.7002 71.0305 190.7002 377.1595 421.2062 377.1595 421.2062 81.1605"></polygon>
                <polygon id="Fill-3" fill="#EFF3FB" points="190.7002 88.8801 190.7002 115.7561 651.7122 115.7561 651.7122 91.1871"></polygon>
                <polygon id="Fill-4" fill="#EFF3FB" points="190.7002 70.1252 190.7002 89.7362 651.7122 90.7782 651.7122 71.8082"></polygon>
                <g id="Group-159" transform="translate(0.000000, 0.933000)">
                    <path d="M208.7197,77.9081 C208.7197,80.3481 206.7407,82.3261 204.3017,82.3261 C201.8617,82.3261 199.8837,80.3481 199.8837,77.9081 C199.8837,75.4681 201.8617,73.4901 204.3017,73.4901 C206.7407,73.4901 208.7197,75.4681 208.7197,77.9081" id="Fill-5" fill="#FC846D"></path>
                    <path d="M223.7432,77.9081 C223.7432,80.3481 221.7642,82.3261 219.3252,82.3261 C216.8862,82.3261 214.9072,80.3481 214.9072,77.9081 C214.9072,75.4681 216.8862,73.4901 219.3252,73.4901 C221.7642,73.4901 223.7432,75.4681 223.7432,77.9081" id="Fill-7" fill="#F9D452"></path>
                    <path d="M238.875,77.9081 C238.875,80.3481 236.898,82.3261 234.457,82.3261 C232.018,82.3261 230.039,80.3481 230.039,77.9081 C230.039,75.4681 232.018,73.4901 234.457,73.4901 C236.898,73.4901 238.875,75.4681 238.875,77.9081" id="Fill-9" fill="#57BE8B"></path>
                    <polygon id="Fill-11" fill="#757575" points="449.3936 128.993 449.3936 143.856 614.9856 143.856 617.0426 127"></polygon>
                    <polygon id="Fill-13" fill="#757575" points="450.9551 264.244 450.9551 268.848 616.5471 268.848 618.6041 263.625"></polygon>
                    <polygon id="Fill-15" fill="#757575" points="450.9551 275.9549 450.9551 280.5589 616.5471 280.5589 618.6041 275.3369"></polygon>
                    <polygon id="Fill-17" fill="#428DC6" points="217.4189 166.4461 217.4189 171.0501 334.0039 171.0501 335.4519 165.8271"></polygon>
                    <polygon id="Fill-19" fill="#428DC6" points="217.4189 178.1571 217.4189 182.7611 334.0039 182.7611 335.4519 177.5391"></polygon>
                    <polygon id="Fill-21" fill="#B2B2B2" points="217.4189 229.1082 217.4189 233.7122 383.0109 233.7122 385.0669 228.4892"></polygon>
                    <polygon id="Fill-23" fill="#B2B2B2" points="217.4189 240.8192 217.4189 245.4232 383.0109 245.4232 385.0669 240.2002"></polygon>
                    <polygon id="Fill-25" fill="#B2B2B2" points="217.4189 252.5301 217.4189 257.1341 285.9449 257.1341 286.7969 251.9111"></polygon>
                    <polygon id="Fill-27" fill="#B2B2B2" points="217.4189 275.9549 217.4189 280.5589 346.1689 280.5589 347.7689 275.3369"></polygon>
                    <polygon id="Fill-29" fill="#B2B2B2" points="217.4189 287.6668 217.4189 292.2708 383.0109 292.2708 385.0669 287.0478"></polygon>
                    <polygon id="Fill-31" fill="#B2B2B2" points="217.4189 299.3778 217.4189 303.9818 310.0019 303.9818 311.1519 298.7588"></polygon>
                    <polygon id="Fill-33" fill="#B2B2B2" points="217.4189 312.283 217.4189 316.887 310.0019 316.887 311.1519 311.665"></polygon>
                    <polygon id="Fill-35" fill="#428DC6" points="217.4189 191.0789 217.4189 195.6829 298.5469 195.6829 299.5549 190.4599"></polygon>
                    <polygon id="Fill-37" fill="#428DC6" points="217.4189 204.7987 217.4189 209.4027 298.5469 209.4027 299.5549 204.1797"></polygon>
                    <polygon id="Fill-39" fill="#757575" points="449.3936 149.7762 449.3936 154.3802 512.3996 154.3802 513.1816 149.1582"></polygon>
                    <polygon id="Fill-41" fill="#757575" points="468.8828 173.2889 468.8828 177.8939 569.7028 177.8939 570.9538 172.6719"></polygon>
                    <polygon id="Fill-43" fill="#757575" points="468.8828 189.3338 468.8828 193.9378 539.3608 193.9378 540.2358 188.7158"></polygon>
                    <polygon id="Fill-45" fill="#757575" points="468.8828 206.4598 468.8828 211.0648 539.3608 211.0648 540.2358 205.8428"></polygon>
                    <polygon id="Fill-47" fill="#757575" points="468.8828 225.2489 468.8828 229.8539 539.3608 229.8539 540.2358 224.6319"></polygon>
                    <polygon id="Fill-49" fill="#ECA264" points="218.5264 128.993 218.5264 143.856 384.1184 143.856 386.1754 127"></polygon>
                    <polygon id="Fill-51" fill="#ECA264" points="218.5264 149.7762 218.5264 154.3802 281.5324 154.3802 282.3144 149.1582"></polygon>
                    <polygon id="Fill-53" fill="#757575" points="450.9551 288.8602 450.9551 293.4652 513.9611 293.4652 514.7431 288.2422"></polygon>
                    <polygon id="Fill-55" fill="#E6E7E8" points="450.9551 308.1873 450.9551 376.2263 622.0591 376.2263 624.1851 303.9823"></polygon>
                    <path d="M190.7002,87.9471 L651.7122,90.2541" id="Stroke-57" stroke="#DDDDDD"></path>
                    <path d="M246.6123,108.9657 L201.9923,108.9657 C200.5133,108.9657 199.3153,107.7677 199.3153,106.2887 L199.3153,96.4817 C199.3153,95.0037 200.5133,93.8057 201.9923,93.8057 L246.6123,93.8057 C248.0913,93.8057 249.2893,95.0037 249.2893,96.4817 L249.2893,106.2887 C249.2893,107.7677 248.0913,108.9657 246.6123,108.9657" id="Fill-59" fill="#CCCCCC"></path>
                    <path d="M641.415,110.3143 L617.007,110.3143 C615.528,110.3143 614.33,109.1163 614.33,107.6383 L614.33,97.8303 C614.33,96.3523 615.528,95.1543 617.007,95.1543 L641.415,95.1543 C642.894,95.1543 644.092,96.3523 644.092,97.8303 L644.092,107.6383 C644.092,109.1163 642.894,110.3143 641.415,110.3143" id="Fill-61" fill="#377BB5"></path>
                    <path d="M143.3281,263.242 C141.2701,265.275 141.2511,268.591 143.2841,270.648 C145.3171,272.705 148.6331,272.724 150.6891,270.691 C152.7461,268.659 152.7661,265.344 150.7321,263.286 C148.7001,261.23 145.3851,261.21 143.3281,263.242" id="Fill-63" fill="#4F95D0"></path>
                    <path d="M264.9668,275.3826 C266.7818,270.7526 264.5248,265.3266 259.8508,263.6646 L215.2308,247.8016 C210.5568,246.1396 205.3288,248.2876 203.5138,252.9176 C201.6978,257.5486 204.0038,262.8076 208.6308,264.6336 L253.2508,280.4976 C257.9378,282.1656 263.1518,280.0126 264.9668,275.3826" id="Fill-65" fill="#B7945C"></path>
                    <path d="M251.4697,290.2635 C253.9987,285.9805 252.6337,280.2655 248.2817,277.8805 L206.7557,255.1195 C202.4067,252.7355 196.9027,254.0245 194.3737,258.3065 C191.8447,262.5895 193.2837,268.1495 197.5617,270.6875 L239.0887,293.4495 C243.4497,295.8415 248.9407,294.5455 251.4697,290.2635" id="Fill-67" fill="#B7945C"></path>
                    <polygon id="Fill-69" fill="#B7945C" points="172.6377 312.9569 178.1457 254.6599 223.0577 240.8449 250.1137 254.8359 203.7717 314.9239"></polygon>
                    <path d="M236.1475,305.0282 C239.7445,301.5932 239.9815,295.7212 236.4415,292.2452 L202.6555,259.0642 C199.1155,255.5882 193.4695,255.3342 189.8735,258.7692 C186.2765,262.2052 186.1515,267.9462 189.5795,271.5512 L223.3655,304.7332 C226.9145,308.2192 232.5505,308.4642 236.1475,305.0282" id="Fill-71" fill="#B7945C"></path>
                    <path d="M177.0518,299.2703 C160.3408,307.9633 164.8418,337.0303 175.6338,345.2023 C186.4278,353.3743 203.3708,347.6503 215.6428,333.1843 C227.9118,318.7183 224.4068,300.0443 218.6198,295.8983 C212.8328,291.7513 193.7628,290.5783 177.0518,299.2703" id="Fill-73" fill="#FED4A4"></path>
                    <path d="M170.3037,322.4002 C175.0987,323.7212 181.1127,321.0332 181.4217,316.0872 L185.1937,255.7042 C185.5017,250.7562 183.6737,245.9062 178.8777,244.5852 C174.0827,243.2642 169.0937,246.1072 167.7617,250.9002 L163.9897,311.2842 C163.6797,316.2492 165.5077,321.0812 170.3037,322.4002" id="Fill-75" fill="#FED4A4"></path>
                    <path d="M221.7354,235.0096 C219.7364,230.4556 214.4064,228.4776 209.8224,230.3666 L173.6024,244.7396 C168.9934,246.5696 166.9584,252.0996 168.9594,256.6536 C170.9584,261.2066 176.3124,263.2846 180.8714,261.2946 L217.0924,246.9226 C221.7154,245.0876 223.7364,239.5646 221.7354,235.0096" id="Fill-77" fill="#FED4A4"></path>
                    <path d="M269.9775,251.8182 C271.2865,247.0182 268.4575,241.8682 263.6325,240.7172 L217.5685,229.7392 C212.7415,228.5892 207.7745,231.2862 206.4665,236.0852 C205.1605,240.8822 208.0175,245.8662 212.8135,247.1832 L258.8785,258.1632 C263.7185,259.3172 268.6695,256.6162 269.9775,251.8182" id="Fill-79" fill="#FED4A4"></path>
                    <path d="M196.2764,255.8387 C194.5054,264.1727 188.1154,297.7807 208.8974,292.0977 C229.6804,286.4137 190.4304,326.0037 190.4304,326.0037 L169.2814,297.7237 C169.2814,297.7237 167.2334,264.6217 196.2764,255.8387" id="Fill-81" fill="#FED4A4"></path>
                    <polygon id="Fill-83" fill="#CCCCCC" points="279.166 249.2928 146.652 261.5748 147.365 272.3578 280.304 260.0728"></polygon>
                    <polygon id="Fill-85" fill="#FED4A4" points="168.7666 299.1756 207.1806 324.3576 195.3346 350.1386 154.2716 329.2146"></polygon>
                    <polygon id="Fill-87" fill="#FED4A4" points="156.2764 325.0594 196.7184 347.1234 188.6294 363.3494 148.1864 341.2854"></polygon>
                    <polygon id="Fill-89" fill="#888888" points="150.8984 454.8094 203.8064 368.6344 144.8774 330.5144 67.2214 454.8094"></polygon>
                    <path d="M206.3721,308.7078 C210.4331,312.9038 217.4911,313.2918 221.3831,308.9558 L256.5501,269.7838 C260.4401,265.4488 260.8591,258.9708 256.7991,254.7728 C252.7381,250.5758 245.9961,250.4738 241.7891,254.5248 L206.6211,293.6978 C202.7191,298.0438 202.3111,304.5108 206.3721,308.7078" id="Fill-91" fill="#FED4A4"></path>
                    <path d="M241.9687,257.9657 L239.4757,261.6247 C241.5537,267.8867 246.0187,270.6787 252.4747,270.5737 L254.9237,267.1217 C261.5647,257.7147 247.1967,250.0737 241.9687,257.9657" id="Fill-93" fill="#FFFFFF"></path>
                    <path d="M264.2275,240.701 L248.2055,236.883 C247.0045,238.83 246.9765,242.087 248.2215,244.935 C254.1155,246.667 263.5565,246.937 264.2275,240.701" id="Fill-95" fill="#FFFFFF"></path>
                    <path d="M279.166,249.2928 L293.738,251.8968 C295.966,252.2948 296.339,253.7308 293.987,254.6378 L280.303,260.0728 L279.166,249.2928 Z" id="Fill-97" fill="#4F95D0"></path>
                    <polygon id="Fill-99" fill="#E6E7E8" points="459.8916 180.5174 449.3936 181.6304 449.3936 170.0194 461.1886 170.0194"></polygon>
                    <polygon id="Fill-101" fill="#E6E7E8" points="459.8916 197.2762 449.3936 198.3882 449.3936 186.7782 461.1886 186.7782"></polygon>
                    <polygon id="Fill-103" fill="#757575" points="468.8828 244.5994 468.8828 249.2044 552.3368 249.2044 553.3718 243.9824"></polygon>
                    <polygon id="Fill-105" fill="#E6E7E8" points="459.8916 252.5418 449.3936 253.6548 449.3936 242.0438 461.1886 242.0438"></polygon>
                    <polygon id="Fill-107" fill="#E6E7E8" points="459.8916 215.744 449.3936 216.856 449.3936 205.246 461.1886 205.246"></polygon>
                    <polygon id="Fill-109" fill="#E6E7E8" points="459.8916 233.4012 449.3936 234.5142 449.3936 222.9042 461.1886 222.9042"></polygon>
                    <polygon id="Fill-111" fill="#57BE8B" points="450.5996 207.6102 455.6396 215.1722 464.6706 201.7352 455.2906 210.1542"></polygon>
                    <polygon id="Fill-113" fill="#57BE8B" points="450.5996 225.8494 455.6396 233.4114 464.6706 219.9744 455.2906 228.3934"></polygon>
                    <mask id="mask-2" fill="white">
                        <use xlink:href="#path-1"></use>
                    </mask>
                    <g id="Clip-116"></g>
                    <polygon id="Fill-115" fill="#61E57A" mask="url(#mask-2)" points="472.844 376.226 474.253 376.226 474.253 314.811 472.844 314.811"></polygon>
                    <polygon id="Fill-117" fill="#757575" mask="url(#mask-2)" points="458.8936 315.4178 458.8936 320.0228 467.8936 320.0228 468.0056 314.7998"></polygon>
                    <polygon id="Fill-118" fill="#757575" mask="url(#mask-2)" points="458.8936 327.4657 458.8936 332.0707 467.8936 332.0707 468.0056 326.8487"></polygon>
                    <polygon id="Fill-119" fill="#757575" mask="url(#mask-2)" points="458.8936 339.5135 458.8936 344.1185 467.8936 344.1185 468.0056 338.8965"></polygon>
                    <polygon id="Fill-120" fill="#757575" mask="url(#mask-2)" points="458.8936 351.5623 458.8936 356.1673 467.8936 356.1673 468.0056 350.9443"></polygon>
                    <polygon id="Fill-121" fill="#757575" mask="url(#mask-2)" points="458.8936 363.6102 458.8936 368.2152 467.8936 368.2152 468.0056 362.9932"></polygon>
                    <polygon id="Fill-122" fill="#428DC6" mask="url(#mask-2)" points="478.9736 315.4188 478.9736 320.0228 515.9746 320.0228 516.4346 314.7998"></polygon>
                    <polygon id="Fill-123" fill="#428DC6" mask="url(#mask-2)" points="506.2158 327.4666 506.2158 332.0706 520.2508 332.0706 520.4258 326.8476"></polygon>
                    <polygon id="Fill-124" fill="#757575" mask="url(#mask-2)" points="520.5312 315.4188 520.5312 320.0228 613.1792 320.0228 614.3302 314.7998"></polygon>
                    <polygon id="Fill-125" fill="#757575" mask="url(#mask-2)" points="524.5459 327.4666 524.5459 332.0706 612.3719 332.0706 613.4629 326.8486"></polygon>
                    <polygon id="Fill-126" fill="#757575" mask="url(#mask-2)" points="502.2246 340.5721 502.2246 345.1761 564.6486 345.1761 565.4236 339.9531"></polygon>
                    <polygon id="Fill-127" fill="#757575" mask="url(#mask-2)" points="502.2246 351.5633 502.2246 356.1673 564.6486 356.1673 565.4236 350.9443"></polygon>
                    <polygon id="Fill-128" fill="#757575" mask="url(#mask-2)" points="522.0928 363.6112 522.0928 368.2152 564.8928 368.2152 565.4238 362.9932"></polygon>
                    <path d="M9.3267,124.4022 C9.3637,124.3892 12.5647,123.4072 12.5647,123.4072 C13.7337,123.0492 14.9947,123.1402 16.0997,123.6672 L22.6107,126.7612 L29.1207,123.6662 C30.2257,123.1412 31.4867,123.0492 32.6567,123.4082 C32.6567,123.4082 35.8557,124.3902 35.8937,124.4022 C41.4737,126.2612 45.2217,131.4622 45.2217,137.3422 L45.2217,151.7102 C45.2217,154.4112 43.0327,156.6002 40.3297,156.6002 L4.8907,156.6002 C2.1897,156.6002 -0.0003,154.4112 -0.0003,151.7102 L-0.0003,137.3422 C-0.0003,131.4622 3.7477,126.2612 9.3267,124.4022" id="Fill-129" fill="#CCCCCC" mask="url(#mask-2)"></path>
                    <path d="M22.6104,119.9803 C15.8114,119.9803 10.2804,114.4493 10.2804,107.6503 C10.2804,100.8513 15.8114,95.3203 22.6104,95.3203 C29.4094,95.3203 34.9404,100.8513 34.9404,107.6503 C34.9404,114.4493 29.4094,119.9803 22.6104,119.9803" id="Fill-130" fill="#CCCCCC" mask="url(#mask-2)"></path>
                    <path d="M86.4453,229.4754 C86.4723,229.4654 88.9343,228.7094 88.9343,228.7094 C89.8343,228.4344 90.8033,228.5044 91.6533,228.9094 L96.6603,231.2894 L101.6663,228.9094 C102.5153,228.5054 103.4853,228.4344 104.3843,228.7104 C104.3843,228.7104 106.8453,229.4664 106.8753,229.4754 C111.1653,230.9054 114.0483,234.9044 114.0483,239.4264 L114.0483,250.4744 C114.0483,252.5514 112.3643,254.2354 110.2863,254.2354 L83.0343,254.2354 C80.9563,254.2354 79.2723,252.5514 79.2723,250.4744 L79.2723,239.4264 C79.2723,234.9044 82.1553,230.9054 86.4453,229.4754" id="Fill-131" fill="#377BB5" mask="url(#mask-2)"></path>
                    <path d="M96.6602,226.075 C91.4312,226.075 87.1792,221.821 87.1792,216.594 C87.1792,211.365 91.4312,207.111 96.6602,207.111 C101.8892,207.111 106.1412,211.365 106.1412,216.594 C106.1412,221.821 101.8892,226.075 96.6602,226.075" id="Fill-132" fill="#377BB5" mask="url(#mask-2)"></path>
                    <path d="M107.5967,31.7049 C107.6257,31.6949 110.1387,30.9239 110.1387,30.9239 C111.0567,30.6429 112.0467,30.7149 112.9137,31.1279 L118.0257,33.5579 L123.1367,31.1269 C124.0037,30.7149 124.9927,30.6429 125.9117,30.9249 C125.9117,30.9249 128.4237,31.6959 128.4527,31.7049 C132.8337,33.1649 135.7767,37.2479 135.7767,41.8639 L135.7767,53.1419 C135.7767,55.2639 134.0577,56.9819 131.9367,56.9819 L104.1147,56.9819 C101.9937,56.9819 100.2757,55.2639 100.2757,53.1419 L100.2757,41.8639 C100.2747,37.2479 103.2177,33.1649 107.5967,31.7049" id="Fill-133" fill="#FAA330" mask="url(#mask-2)"></path>
                    <path d="M118.0254,28.2342 C112.6884,28.2342 108.3454,23.8912 108.3454,18.5532 C108.3454,13.2162 112.6884,8.8742 118.0254,8.8742 C123.3634,8.8742 127.7054,13.2162 127.7054,18.5532 C127.7054,23.8912 123.3634,28.2342 118.0254,28.2342" id="Fill-134" fill="#FAA330" mask="url(#mask-2)"></path>
                    <path d="M158.2187,145.3514 L65.1877,134.1834" id="Stroke-136" stroke="#CCCCCC" stroke-width="4" stroke-linecap="round" stroke-linejoin="round" stroke-dasharray="0,11.023" mask="url(#mask-2)"></path>
                    <path d="M168.7002,186.3319 L122.7162,223.4299" id="Stroke-138" stroke="#CCCCCC" stroke-width="4" stroke-linecap="round" stroke-linejoin="round" stroke-dasharray="0,11" mask="url(#mask-2)"></path>
                    <path d="M125.4375,68.0555 L170.5265,118.1895" id="Stroke-139" stroke="#CCCCCC" stroke-width="4" stroke-linecap="round" stroke-linejoin="round" stroke-dasharray="0,11" mask="url(#mask-2)"></path>
                    <path d="M839.2451,117.7342 C839.2071,117.7212 835.8801,116.7002 835.8801,116.7002 C834.6641,116.3282 833.3521,116.4222 832.2051,116.9692 L825.4371,120.1872 L818.6701,116.9682 C817.5211,116.4232 816.2111,116.3282 814.9951,116.7012 C814.9951,116.7012 811.6691,117.7222 811.6301,117.7342 C805.8301,119.6682 801.9341,125.0732 801.9341,131.1852 L801.9341,146.1192 C801.9341,148.9272 804.2101,151.2032 807.0181,151.2032 L843.8551,151.2032 C846.6641,151.2032 848.9391,148.9272 848.9391,146.1192 L848.9391,131.1852 C848.9401,125.0732 845.0441,119.6672 839.2451,117.7342" id="Fill-140" fill="#CCCCCC" mask="url(#mask-2)"></path>
                    <path d="M825.4375,113.1385 C832.5035,113.1385 838.2535,107.3895 838.2535,100.3225 C838.2535,93.2545 832.5035,87.5055 825.4375,87.5055 C818.3705,87.5055 812.6205,93.2545 812.6205,100.3225 C812.6205,107.3895 818.3705,113.1385 825.4375,113.1385" id="Fill-141" fill="#CCCCCC" mask="url(#mask-2)"></path>
                    <path d="M759.7109,221.4754 C759.6829,221.4654 757.2209,220.7094 757.2209,220.7094 C756.3209,220.4344 755.3519,220.5044 754.5019,220.9094 L749.4959,223.2894 L744.4889,220.9094 C743.6399,220.5054 742.6699,220.4344 741.7709,220.7104 C741.7709,220.7104 739.3099,221.4664 739.2809,221.4754 C734.9899,222.9054 732.1069,226.9044 732.1069,231.4264 L732.1069,242.4744 C732.1069,244.5514 733.7909,246.2354 735.8689,246.2354 L763.1219,246.2354 C765.1989,246.2354 766.8829,244.5514 766.8829,242.4744 L766.8829,231.4264 C766.8839,226.9044 764.0009,222.9054 759.7109,221.4754" id="Fill-142" fill="#4CBA5D" mask="url(#mask-2)"></path>
                    <path d="M749.4951,218.075 C754.7241,218.075 758.9761,213.821 758.9761,208.594 C758.9761,203.365 754.7241,199.111 749.4951,199.111 C744.2661,199.111 740.0141,203.365 740.0141,208.594 C740.0141,213.821 744.2661,218.075 749.4951,218.075" id="Fill-143" fill="#4CBA5D" mask="url(#mask-2)"></path>
                    <path d="M741.8594,22.3319 C741.8314,22.3229 739.3804,21.5699 739.3804,21.5699 C738.4854,21.2969 737.5194,21.3659 736.6734,21.7689 L731.6904,24.1389 L726.7054,21.7689 C725.8594,21.3659 724.8944,21.2969 723.9994,21.5709 C723.9994,21.5709 721.5484,22.3229 721.5204,22.3319 C717.2494,23.7559 714.3794,27.7369 714.3794,32.2389 L714.3794,43.2379 C714.3794,45.3069 716.0554,46.9819 718.1244,46.9819 L745.2554,46.9819 C747.3244,46.9819 749.0004,45.3069 749.0004,43.2379 L749.0004,32.2389 C749.0014,27.7369 746.1304,23.7559 741.8594,22.3319" id="Fill-144" fill="#377BB5" mask="url(#mask-2)"></path>
                    <path d="M731.6895,18.9471 C736.8945,18.9471 741.1285,14.7131 741.1285,9.5081 C741.1285,4.3011 736.8945,0.0671 731.6895,0.0671 C726.4845,0.0671 722.2505,4.3011 722.2505,9.5081 C722.2505,14.7131 726.4845,18.9471 731.6895,18.9471" id="Fill-145" fill="#377BB5" mask="url(#mask-2)"></path>
                    <path d="M690.9375,135.3514 L783.9675,124.1834" id="Stroke-147" stroke="#CCCCCC" stroke-width="4" stroke-linecap="round" stroke-linejoin="round" stroke-dasharray="0,11.023" mask="url(#mask-2)"></path>
                    <path d="M680.4551,176.3319 L726.4401,213.4299" id="Stroke-149" stroke="#CCCCCC" stroke-width="4" stroke-linecap="round" stroke-linejoin="round" stroke-dasharray="0,11" mask="url(#mask-2)"></path>
                    <path d="M724.7178,58.0555 L679.6288,108.1895" id="Stroke-150" stroke="#CCCCCC" stroke-width="4" stroke-linecap="round" stroke-linejoin="round" stroke-dasharray="0,11" mask="url(#mask-2)"></path>
                    <path d="M657.4268,337.575 L681.1978,386.22 L725.4948,383.688 C727.3498,381.837 729.1598,379.943 730.9248,378.01 L706.2538,325.367 L657.4268,337.575 Z" id="Fill-151" fill="#FED4A4" mask="url(#mask-2)"></path>
                    <path d="M611.6279,301.0223 L637.6929,333.8743 C641.0489,338.1023 657.9719,350.8113 662.4579,347.8063 C666.9389,344.8043 659.5289,330.1053 656.0649,325.9593 L636.2609,303.8433 C624.9039,291.1643 616.1089,297.2413 611.6279,301.0223" id="Fill-152" fill="#FED4A4" mask="url(#mask-2)"></path>
                    <path d="M615.1914,232.5799 L637.1634,275.8479 C638.2544,267.7209 650.4364,265.7899 655.3024,273.1189 C655.2784,264.6389 666.5934,261.8799 672.3004,267.6639 C673.5644,259.8429 685.8144,258.3929 689.9154,266.3999 L708.6984,303.0669 C713.9724,313.3619 715.1874,329.4589 713.4874,336.9619 C708.4434,359.2009 679.5634,361.5479 668.9984,355.4049 C660.7594,350.6159 654.3544,348.1159 651.4554,342.6439 L597.8384,241.1819 C591.0464,228.3609 609.8924,221.8919 615.1914,232.5799" id="Fill-153" fill="#FED4A4" mask="url(#mask-2)"></path>
                    <path d="M652.7881,270.5135 C653.7411,271.1955 654.5991,272.0595 655.3031,273.1185 C655.3011,272.5545 655.3511,272.0185 655.4451,271.5055 C659.0601,278.6785 663.5021,287.5845 663.5021,287.5845 C663.5021,287.5845 656.7831,277.1175 652.7881,270.5135 M637.1991,275.6155 C637.3161,274.8965 637.5211,274.2265 637.8011,273.6105 C641.3751,280.9185 647.1981,293.5495 647.1981,293.5495 C647.1981,293.5495 639.9831,281.2015 637.1631,275.8475 C637.2071,275.9295 637.2131,275.8305 637.1991,275.6155 M679.4211,280.2235 C679.4211,280.2235 675.8391,272.8775 672.6301,266.3675 C672.4851,266.7775 672.3751,267.2095 672.3011,267.6635 C671.8001,267.1565 671.2541,266.7145 670.6781,266.3365 C674.5781,272.6345 679.4211,280.2235 679.4211,280.2235" id="Fill-154" fill="#B7945C" mask="url(#mask-2)"></path>
                    <path d="M612.7979,233.1737 L614.6719,236.8907 C611.9649,242.4707 607.4619,244.5267 601.4569,243.6377 L599.5979,240.1187 C594.5629,230.5347 608.8929,225.1757 612.7979,233.1737" id="Fill-155" fill="#FFFFFF" mask="url(#mask-2)"></path>
                    <path d="M622.5918,310.3397 C621.9518,311.0287 621.2828,311.6947 620.6058,312.3377 L611.6278,301.0227 C616.2048,298.8457 620.1278,305.7727 622.5918,310.3397" id="Fill-156" fill="#FFFFFF" mask="url(#mask-2)"></path>
                    <polygon id="Fill-157" fill="#B7945C" mask="url(#mask-2)" points="627.4229 297.1658 640.6569 322.2108 624.0519 296.8118"></polygon>
                    <polygon id="Fill-158" fill="#888888" mask="url(#mask-2)" points="730.1465 344.6903 663.8575 376.7553 702.0285 454.9623 781.7865 455.0003"></polygon>
                </g>
            </g>
        </g>
    </g>
</svg>
